<?xml version="1.0" encoding="UTF-8"?>
<svg id="Layer_1" data-name="Layer 1" xmlns="http://www.w3.org/2000/svg" viewBox="0 0 194.39 33.29">
  <defs>
    <style>
      .cls-1 {
        fill: #002538;
        stroke: #000;
      }

      .cls-1, .cls-2 {
        stroke-miterlimit: 10;
      }

      .cls-3 {
        fill: #04a2b8;
      }

      .cls-3, .cls-4 {
        stroke-width: 0px;
      }

      .cls-4 {
        fill: #012536;
      }

      .cls-2 {
        fill: #10162d;
        font-family: CalistoMT, 'Calisto MT';
        font-size: 30px;
        isolation: isolate;
        letter-spacing: .01em;
        stroke: #130047;
        stroke-width: 1.5px;
      }
    </style>
  </defs>
  <g id="Layer_3" data-name="Layer 3">
    <text class="cls-2" transform="translate(28.48 26.07)"><tspan x="0" y="0">UpEduSkills</tspan></text>
  </g>
  <g id="Layer_1-2" data-name="Layer 1">
    <g>
      <path id="SVGID" class="cls-3" d="m1.51,30.31c.25-.03.46-.05.71-.08.25-.05.64-.15.96-.33.46-.23.61-.48.68-.6.14-.23.18-.43.14-.58l.11-14.79-2.21,1.21.04,5.54.71.45-.11,8.06c0,.08-.04.15-.07.2-.18.4-.61.71-.96.91Z"/>
      <path class="cls-4" d="m5.01,29.66c.14-.23.25-.45.39-.68.07-.2.11-.43.18-.63,0-4.81.04-9.6.04-14.41l2.29,1.21v12.65c-.04.28-.21.48-.32.6-.25.3-.61.48-.89.63-.18.1-.46.25-.89.4-.29.1-.57.18-.79.23Z"/>
      <polygon class="cls-1" points="1.61 13.15 8.47 13.2 5.04 10.84 1.61 13.15"/>
      <path class="cls-4" d="m8.33,30.81h0s.04,0,0,0l.79-.63.04-.03.68-.81v-.03l.32-.53v-.03l.18-.48v-.03l.04-19.32c0-.1-.18-.15-.36-.13l-4.68,1.31c-.21.05-.43-.08-.32-.18L13.51,1.34c.11-.1.32-.1.43,0l8.64,8.57c.11.1-.11.23-.32.18l-4.82-1.28c-.14-.05-.36.03-.36.13v19.22l-.25.6h0l-.46.76-.04.03-.89.68-.04.03-1.11.6-.04.03-1.25.38c-.21.08-.46-.08-.32-.18l1.21-1.03.04-.03.54-1.08v-.03l.18-1.34h0l.04-19.27s-.04-.05-.07-.08l-.68-.43c-.11-.05-.29-.05-.36,0l-.64.43s-.04.05-.04.08l-.18,19.6v.03l-.25.53v.03l-.46.63v.03l-.68.68-.04.03-1,.58-.04.03-1.46.5h-.04l-.18.05c-.21.08-.39-.08-.25-.18Z"/>
      <path class="cls-4" d="m23.26,29.81c-.14-.23-.29-.45-.43-.68-.07-.23-.11-.43-.18-.66,0-4.84-.04-9.7-.04-14.54l-2.39,1.21v12.77c.04.28.21.48.32.6.29.3.64.48.93.66.18.1.46.25.93.4.36.1.64.18.86.23Z"/>
      <polygon class="cls-1" points="19.69 13.18 26.51 13.26 23.08 10.86 19.69 13.18"/>
      <path id="SVGID-2" data-name="SVGID" class="cls-3" d="m26.44,30.26c-.25-.03-.46-.05-.71-.08-.25-.05-.64-.15-.96-.33-.46-.23-.61-.48-.71-.58-.14-.23-.18-.43-.14-.58l-.11-14.71,2.21,1.18-.04,5.52-.71.45.11,8.01c0,.08.04.15.07.2.21.4.64.71,1,.91Z"/>
    </g>
  </g>
</svg>