<?xml version="1.0" encoding="UTF-8"?>
<svg id="Layer_1" data-name="Layer 1" xmlns="http://www.w3.org/2000/svg" viewBox="0 0 190.1 33.3">
  <defs>
    <style>
      .cls-1 {
        fill: #10162d;
      }

      .cls-1, .cls-2, .cls-3 {
        font-family: CalistoMT, 'Calisto MT';
        font-size: 30px;
        isolation: isolate;
      }

      .cls-4 {
        fill: #002538;
      }

      .cls-4, .cls-2 {
        stroke: #fff;
        stroke-miterlimit: 10;
      }

      .cls-5 {
        stroke-width: 0px;
      }

      .cls-5, .cls-3 {
        fill: #fff;
      }

      .cls-2 {
        fill: none;
        stroke-width: 1.5px;
      }
    </style>
  </defs>
  <text class="cls-1" transform="translate(28.48 26.07)"><tspan x="0" y="0">UpEduSkills</tspan></text>
  <text class="cls-3" transform="translate(28.48 26.07)"><tspan x="0" y="0">UpEduSkills</tspan></text>
  <text class="cls-2" transform="translate(28.48 26.07)"><tspan x="0" y="0">UpEduSkills</tspan></text>
  <path id="SVGID" class="cls-5" d="m1.5,30.3c.2,0,.5,0,.7-.1.2,0,.6-.1,1-.3.5-.2.6-.5.7-.6.1-.2.1-.4.1-.6l.1-14.8-2.2,1.2v5.5l.7.5-.1,8.1q0,.1-.1.2c-.1.4-.5.7-.9.9h0Z"/>
  <path class="cls-5" d="m5,29.7c.1-.2.2-.5.4-.7.1-.2.1-.4.2-.6v-14.4l2.3,1.2v12.6c0,.3-.2.5-.3.6-.3.3-.6.5-.9.6-.2.1-.5.2-.9.4-.3.1-.6.2-.8.3h0Z"/>
  <polygon class="cls-4" points="1.6 13.1 8.5 13.2 5 10.8 1.6 13.1"/>
  <path class="cls-5" d="m8.3,30.8h0s.1,0,0,0l.8-.6h0l.7-.8h0l.3-.5h0l.2-.5h0V8.7c0-.1-.2-.2-.4-.1l-4.6,1.1c-.2,0-.4-.1-.3-.2L13.5.7c.1-.1.3-.1.4,0l8.6,8.7c.1.1-.1.2-.3.2l-4.8-1.3c-.1-.1-.4,0-.4.1v19.6l-.2.6h0l-.5.8h0l-.9.7h0l-1.1.6h0l-1.3.6c-.2.1-.5-.1-.3-.2l1.2-1.1h0l.5-1.1h0l.2-1.4h0V7.8s0-.1-.1-.1l-.7-.4c-.1-.1-.3-.1-.4,0l-.6.4v.1l-.2,20h0l-.2.5h0l-.4.8h0l-.7.7h0l-1,.6h0l-1.5.6h-.2c-.2.1-.4-.1-.3-.2h0Z"/>
  <path class="cls-5" d="m23.3,29.8c-.1-.2-.3-.5-.4-.7s-.1-.4-.2-.7v-14.5l-2.4,1.2v12.8c0,.3.2.5.3.6.3.3.6.5.9.7.2.1.5.2.9.4.4.1.6.2.9.2h0Z"/>
  <polygon class="cls-4" points="19.7 13.2 26.5 13.3 23.1 10.9 19.7 13.2"/>
  <path id="SVGID-2" class="cls-5" d="m26.4,30.3c-.2,0-.5,0-.7-.1-.2,0-.6-.1-1-.3-.5-.2-.6-.5-.7-.6-.1-.2-.2-.4-.1-.6l-.1-14.7,2.2,1.2v5.5l-.7.5.1,8q0,.1.1.2c.2.3.6.7.9.9h0Z"/>
</svg>